<svg xmlns="http://www.w3.org/2000/svg" xmlns:xlink="http://www.w3.org/1999/xlink" width="500" zoomAndPan="magnify"
    viewBox="0 0 375 374.999991" height="500" preserveAspectRatio="xMidYMid meet" version="1.0">
    <defs>
        <g />
        <clipPath id="a51e4b79ef">
            <path
                d="M 56.488281 151.464844 L 318.238281 151.464844 L 318.238281 223.464844 L 56.488281 223.464844 Z M 56.488281 151.464844 "
                clip-rule="nonzero" />
        </clipPath>
        <clipPath id="15bbbe1583">
            <path
                d="M 63.558594 158.238281 L 187.308594 158.238281 L 187.308594 216.738281 L 63.558594 216.738281 Z M 63.558594 158.238281 "
                clip-rule="nonzero" />
        </clipPath>
    </defs>
    <g clip-path="url(#a51e4b79ef)">
        <path stroke-linecap="butt" transform="matrix(0.750202, 0, 0, 0.749268, 56.489269, 151.465449)" fill="none"
            stroke-linejoin="miter"
            d="M -0.00131637 -0.000808127 L 348.904932 -0.000808127 L 348.904932 96.092952 L -0.00131637 96.092952 L -0.00131637 -0.000808127 "
            stroke="#000000" stroke-width="6" stroke-opacity="1" stroke-miterlimit="4" />
    </g>
    <g clip-path="url(#15bbbe1583)">
        <path fill="#000000"
            d="M 63.5625 158.238281 L 187.308594 158.238281 L 187.308594 216.738281 L 63.5625 216.738281 L 63.5625 158.238281 "
            fill-opacity="1" fill-rule="nonzero" />
    </g>
    <g fill="#ffffff" fill-opacity="1">
        <g transform="translate(75.020821, 197.368259)">
            <g>
                <path
                    d="M 1.234375 0 L 4.042969 0 C 8.566406 0 10.671875 -2.585938 10.671875 -6.488281 L 10.671875 -19.660156 L 8.203125 -19.660156 L 8.203125 -6.628906 C 8.203125 -4.015625 7.191406 -2.359375 4.042969 -2.359375 L 1.234375 -2.359375 Z M 1.234375 0 " />
            </g>
        </g>
    </g>
    <g fill="#ffffff" fill-opacity="1">
        <g transform="translate(90.633096, 197.368259)">
            <g>
                <path
                    d="M 11.796875 0.363281 C 17.78125 0.363281 21.992188 -3.847656 21.992188 -9.832031 C 21.992188 -15.8125 17.78125 -20.027344 11.796875 -20.027344 C 5.8125 -20.027344 1.628906 -15.8125 1.628906 -9.832031 C 1.628906 -3.847656 5.8125 0.363281 11.796875 0.363281 Z M 4.15625 -9.832031 C 4.15625 -14.410156 7.273438 -17.554688 11.796875 -17.554688 C 16.320312 -17.554688 19.4375 -14.410156 19.4375 -9.832031 C 19.4375 -5.253906 16.320312 -2.105469 11.796875 -2.105469 C 7.273438 -2.105469 4.15625 -5.253906 4.15625 -9.832031 Z M 4.15625 -9.832031 " />
            </g>
        </g>
    </g>
    <g fill="#ffffff" fill-opacity="1">
        <g transform="translate(116.353479, 197.368259)">
            <g>
                <path
                    d="M 2.863281 0 L 5.335938 0 L 5.335938 -8.847656 L 8.144531 -8.847656 C 8.902344 -8.847656 9.578125 -8.902344 10.195312 -9.015625 L 15.28125 0 L 18.144531 0 L 12.5 -9.914062 C 13.621094 -10.644531 14.410156 -11.769531 14.96875 -13.257812 L 17.386719 -19.660156 L 14.773438 -19.660156 L 12.75 -14.242188 C 11.964844 -12.105469 10.8125 -11.207031 8.144531 -11.207031 L 5.335938 -11.207031 L 5.335938 -19.660156 L 2.863281 -19.660156 Z M 2.863281 0 " />
            </g>
        </g>
    </g>
    <g fill="#ffffff" fill-opacity="1">
        <g transform="translate(137.693682, 197.368259)">
            <g>
                <path
                    d="M 2.863281 0 L 15.109375 0 L 15.109375 -2.304688 L 5.335938 -2.304688 L 5.335938 -8.875 L 14.101562 -8.875 L 14.101562 -11.152344 L 5.335938 -11.152344 L 5.335938 -17.359375 L 14.800781 -17.359375 L 14.800781 -19.660156 L 2.863281 -19.660156 Z M 2.863281 0 " />
            </g>
        </g>
    </g>
    <g fill="#ffffff" fill-opacity="1">
        <g transform="translate(156.759567, 197.368259)">
            <g>
                <path
                    d="M 2.863281 0 L 5.335938 0 L 5.335938 -7.050781 L 9.660156 -7.050781 L 14.464844 0 L 17.441406 0 L 12.5 -7.304688 C 15.363281 -8.003906 17.132812 -10.167969 17.132812 -13.339844 C 17.132812 -17.246094 14.4375 -19.660156 10.363281 -19.660156 L 2.863281 -19.660156 Z M 5.335938 -9.410156 L 5.335938 -17.300781 L 10.082031 -17.300781 C 12.949219 -17.300781 14.605469 -15.839844 14.605469 -13.339844 C 14.605469 -10.839844 12.949219 -9.410156 10.082031 -9.410156 Z M 5.335938 -9.410156 " />
            </g>
        </g>
    </g>
    <g fill="#000000" fill-opacity="1">
        <g transform="translate(202.369566, 196.769512)">
            <g>
                <path
                    d="M 2.078125 0 L 7.75 0 L 7.75 -4.859375 L 10.363281 -4.859375 C 15.363281 -4.859375 18.539062 -7.75 18.539062 -12.273438 C 18.539062 -16.796875 15.363281 -19.660156 10.363281 -19.660156 L 2.078125 -19.660156 Z M 7.695312 -9.605469 L 7.695312 -14.886719 L 9.832031 -14.886719 C 11.710938 -14.886719 12.808594 -13.875 12.808594 -12.246094 C 12.808594 -10.589844 11.710938 -9.605469 9.832031 -9.605469 Z M 7.695312 -9.605469 " />
            </g>
        </g>
    </g>
    <g fill="#000000" fill-opacity="1">
        <g transform="translate(221.551631, 196.769512)">
            <g>
                <path
                    d="M 11.65625 0.421875 C 17.917969 0.421875 22.355469 -3.820312 22.355469 -9.832031 C 22.355469 -15.839844 17.917969 -20.082031 11.65625 -20.082031 C 5.394531 -20.082031 0.953125 -15.839844 0.953125 -9.832031 C 0.953125 -3.820312 5.394531 0.421875 11.65625 0.421875 Z M 6.710938 -9.832031 C 6.710938 -12.78125 8.761719 -14.828125 11.65625 -14.828125 C 14.578125 -14.828125 16.597656 -12.78125 16.597656 -9.832031 C 16.597656 -6.882812 14.578125 -4.832031 11.65625 -4.832031 C 8.761719 -4.832031 6.710938 -6.882812 6.710938 -9.832031 Z M 6.710938 -9.832031 " />
            </g>
        </g>
    </g>
    <g fill="#000000" fill-opacity="1">
        <g transform="translate(244.890281, 196.769512)">
            <g>
                <path
                    d="M 2.078125 0 L 7.75 0 L 7.75 -7.441406 L 10.222656 -7.441406 L 13.988281 0 L 20.558594 0 L 15.390625 -9.550781 C 15.980469 -10.25 16.515625 -11.179688 16.964844 -12.328125 L 19.886719 -19.660156 L 13.734375 -19.660156 L 11.964844 -14.746094 C 11.375 -13.03125 10.730469 -12.609375 8.707031 -12.609375 L 7.75 -12.609375 L 7.75 -19.660156 L 2.078125 -19.660156 Z M 2.078125 0 " />
            </g>
        </g>
    </g>
    <g fill="#000000" fill-opacity="1">
        <g transform="translate(266.122556, 196.769512)">
            <g>
                <path
                    d="M 2.078125 0 L 15.867188 0 L 15.867188 -4.632812 L 7.695312 -4.632812 L 7.695312 -7.667969 L 14.800781 -7.667969 L 14.800781 -12.21875 L 7.695312 -12.21875 L 7.695312 -15.082031 L 15.558594 -15.082031 L 15.558594 -19.660156 L 2.078125 -19.660156 Z M 2.078125 0 " />
            </g>
        </g>
    </g>
    <g fill="#000000" fill-opacity="1">
        <g transform="translate(283.254411, 196.769512)">
            <g>
                <path
                    d="M 2.078125 0 L 7.75 0 L 7.75 -5.589844 L 9.886719 -5.589844 L 12.695312 0 L 19.128906 0 L 15.503906 -6.628906 C 17.582031 -7.78125 18.761719 -9.859375 18.761719 -12.609375 C 18.761719 -16.964844 15.8125 -19.660156 11.039062 -19.660156 L 2.078125 -19.660156 Z M 7.640625 -10.109375 L 7.640625 -15.027344 L 10.28125 -15.027344 C 12.078125 -15.027344 13.058594 -14.15625 13.058594 -12.582031 C 13.058594 -11.011719 12.078125 -10.109375 10.28125 -10.109375 Z M 7.640625 -10.109375 " />
            </g>
        </g>
    </g>
</svg>