<svg xmlns="http://www.w3.org/2000/svg" xmlns:xlink="http://www.w3.org/1999/xlink" width="300" zoomAndPan="magnify"
    viewBox="0 0 224.87999 60" height="80" preserveAspectRatio="xMidYMid meet" version="1.0">
    <defs>
        <g />
        <clipPath id="c893db5421">
            <path
                d="M 8.066406 1.292969 L 216.457031 1.292969 L 216.457031 59.011719 L 8.066406 59.011719 Z M 8.066406 1.292969 "
                clip-rule="nonzero" />
        </clipPath>
        <clipPath id="62ae343441">
            <path
                d="M 13.699219 6.6875 L 112.644531 6.6875 L 112.644531 53.164062 L 13.699219 53.164062 Z M 13.699219 6.6875 "
                clip-rule="nonzero" />
        </clipPath>
    </defs>
    <g clip-path="url(#c893db5421)">
        <path stroke-linecap="butt" transform="matrix(0.749305, 0, 0, 0.753576, 8.06658, 1.291487)" fill="none"
            stroke-linejoin="miter"
            d="M -0.000232139 0.00196609 L 278.111602 0.00196609 L 278.111602 76.595125 L -0.000232139 76.595125 L -0.000232139 0.00196609 "
            stroke="#000000" stroke-width="6" stroke-opacity="1" stroke-miterlimit="4" />
    </g>
    <g clip-path="url(#62ae343441)">
        <path fill="#000000"
            d="M 13.710938 6.6875 L 112.636719 6.6875 L 112.636719 53.164062 L 13.710938 53.164062 L 13.710938 6.6875 "
            fill-opacity="1" fill-rule="nonzero" />
    </g>
    <g fill="#ffffff" fill-opacity="1">
        <g transform="translate(22.83027, 37.264327)">
            <g>
                <path
                    d="M 0.984375 0 L 3.222656 0 C 6.824219 0 8.503906 -2.058594 8.503906 -5.167969 L 8.503906 -15.664062 L 6.535156 -15.664062 L 6.535156 -5.28125 C 6.535156 -3.199219 5.726562 -1.878906 3.222656 -1.878906 L 0.984375 -1.878906 Z M 0.984375 0 " />
            </g>
        </g>
    </g>
    <g fill="#ffffff" fill-opacity="1">
        <g transform="translate(35.268232, 37.264327)">
            <g>
                <path
                    d="M 9.398438 0.289062 C 14.164062 0.289062 17.519531 -3.066406 17.519531 -7.832031 C 17.519531 -12.597656 14.164062 -15.953125 9.398438 -15.953125 C 4.632812 -15.953125 1.296875 -12.597656 1.296875 -7.832031 C 1.296875 -3.066406 4.632812 0.289062 9.398438 0.289062 Z M 3.3125 -7.832031 C 3.3125 -11.480469 5.796875 -13.984375 9.398438 -13.984375 C 13 -13.984375 15.484375 -11.480469 15.484375 -7.832031 C 15.484375 -4.183594 13 -1.679688 9.398438 -1.679688 C 5.796875 -1.679688 3.3125 -4.183594 3.3125 -7.832031 Z M 3.3125 -7.832031 " />
            </g>
        </g>
    </g>
    <g fill="#ffffff" fill-opacity="1">
        <g transform="translate(55.759104, 37.264327)">
            <g>
                <path
                    d="M 2.28125 0 L 4.25 0 L 4.25 -7.046875 L 6.488281 -7.046875 C 7.09375 -7.046875 7.628906 -7.09375 8.121094 -7.183594 L 12.171875 0 L 14.457031 0 L 9.957031 -7.898438 C 10.851562 -8.480469 11.480469 -9.375 11.925781 -10.5625 L 13.851562 -15.664062 L 11.769531 -15.664062 L 10.160156 -11.34375 C 9.53125 -9.644531 8.613281 -8.929688 6.488281 -8.929688 L 4.25 -8.929688 L 4.25 -15.664062 L 2.28125 -15.664062 Z M 2.28125 0 " />
            </g>
        </g>
    </g>
    <g fill="#ffffff" fill-opacity="1">
        <g transform="translate(72.760382, 37.264327)">
            <g>
                <path
                    d="M 2.28125 0 L 12.039062 0 L 12.039062 -1.835938 L 4.25 -1.835938 L 4.25 -7.070312 L 11.234375 -7.070312 L 11.234375 -8.882812 L 4.25 -8.882812 L 4.25 -13.828125 L 11.792969 -13.828125 L 11.792969 -15.664062 L 2.28125 -15.664062 Z M 2.28125 0 " />
            </g>
        </g>
    </g>
    <g fill="#ffffff" fill-opacity="1">
        <g transform="translate(87.949759, 37.264327)">
            <g>
                <path
                    d="M 2.28125 0 L 4.25 0 L 4.25 -5.617188 L 7.699219 -5.617188 L 11.523438 0 L 13.894531 0 L 9.957031 -5.816406 C 12.238281 -6.378906 13.648438 -8.101562 13.648438 -10.628906 C 13.648438 -13.738281 11.5 -15.664062 8.257812 -15.664062 L 2.28125 -15.664062 Z M 4.25 -7.496094 L 4.25 -13.785156 L 8.035156 -13.785156 C 10.316406 -13.785156 11.636719 -12.621094 11.636719 -10.628906 C 11.636719 -8.636719 10.316406 -7.496094 8.035156 -7.496094 Z M 4.25 -7.496094 " />
            </g>
        </g>
    </g>
    <g fill="#000000" fill-opacity="1">
        <g transform="translate(124.286252, 37.384828)">
            <g>
                <path
                    d="M 1.65625 0 L 6.175781 0 L 6.175781 -3.871094 L 8.257812 -3.871094 C 12.238281 -3.871094 14.769531 -6.175781 14.769531 -9.777344 C 14.769531 -13.382812 12.238281 -15.664062 8.257812 -15.664062 L 1.65625 -15.664062 Z M 6.132812 -7.652344 L 6.132812 -11.859375 L 7.832031 -11.859375 C 9.332031 -11.859375 10.203125 -11.054688 10.203125 -9.757812 C 10.203125 -8.4375 9.332031 -7.652344 7.832031 -7.652344 Z M 6.132812 -7.652344 " />
            </g>
        </g>
    </g>
    <g fill="#000000" fill-opacity="1">
        <g transform="translate(139.568189, 37.384828)">
            <g>
                <path
                    d="M 9.285156 0.335938 C 14.277344 0.335938 17.8125 -3.042969 17.8125 -7.832031 C 17.8125 -12.621094 14.277344 -16 9.285156 -16 C 4.296875 -16 0.761719 -12.621094 0.761719 -7.832031 C 0.761719 -3.042969 4.296875 0.335938 9.285156 0.335938 Z M 5.347656 -7.832031 C 5.347656 -10.179688 6.980469 -11.816406 9.285156 -11.816406 C 11.613281 -11.816406 13.222656 -10.179688 13.222656 -7.832031 C 13.222656 -5.480469 11.613281 -3.847656 9.285156 -3.847656 C 6.980469 -3.847656 5.347656 -5.480469 5.347656 -7.832031 Z M 5.347656 -7.832031 " />
            </g>
        </g>
    </g>
    <g fill="#000000" fill-opacity="1">
        <g transform="translate(158.161588, 37.384828)">
            <g>
                <path
                    d="M 1.65625 0 L 6.175781 0 L 6.175781 -5.929688 L 8.144531 -5.929688 L 11.144531 0 L 16.378906 0 L 12.261719 -7.609375 C 12.730469 -8.167969 13.15625 -8.90625 13.515625 -9.824219 L 15.84375 -15.664062 L 10.941406 -15.664062 L 9.53125 -11.746094 C 9.0625 -10.382812 8.546875 -10.046875 6.9375 -10.046875 L 6.175781 -10.046875 L 6.175781 -15.664062 L 1.65625 -15.664062 Z M 1.65625 0 " />
            </g>
        </g>
    </g>
    <g fill="#000000" fill-opacity="1">
        <g transform="translate(175.076882, 37.384828)">
            <g>
                <path
                    d="M 1.65625 0 L 12.640625 0 L 12.640625 -3.691406 L 6.132812 -3.691406 L 6.132812 -6.109375 L 11.792969 -6.109375 L 11.792969 -9.734375 L 6.132812 -9.734375 L 6.132812 -12.015625 L 12.394531 -12.015625 L 12.394531 -15.664062 L 1.65625 -15.664062 Z M 1.65625 0 " />
            </g>
        </g>
    </g>
    <g fill="#000000" fill-opacity="1">
        <g transform="translate(188.725461, 37.384828)">
            <g>
                <path
                    d="M 1.65625 0 L 6.175781 0 L 6.175781 -4.453125 L 7.875 -4.453125 L 10.113281 0 L 15.238281 0 L 12.351562 -5.28125 C 14.007812 -6.199219 14.945312 -7.855469 14.945312 -10.046875 C 14.945312 -13.515625 12.597656 -15.664062 8.792969 -15.664062 L 1.65625 -15.664062 Z M 6.085938 -8.054688 L 6.085938 -11.972656 L 8.191406 -11.972656 C 9.621094 -11.972656 10.40625 -11.277344 10.40625 -10.023438 C 10.40625 -8.769531 9.621094 -8.054688 8.191406 -8.054688 Z M 6.085938 -8.054688 " />
            </g>
        </g>
    </g>
</svg>